<svg width="42" height="52" viewBox="0 0 42 52" fill="none" xmlns="http://www.w3.org/2000/svg">
<path d="M3.13994 51.264V43.704L22.5799 25.344C24.1159 23.952 25.2439 22.704 25.9639 21.6C26.6839 20.496 27.1639 19.488 27.4039 18.576C27.6919 17.664 27.8359 16.824 27.8359 16.056C27.8359 14.04 27.1399 12.504 25.7479 11.448C24.4039 10.344 22.4119 9.792 19.7719 9.792C17.6599 9.792 15.6919 10.2 13.8679 11.016C12.0919 11.832 10.5799 13.104 9.33194 14.832L0.835938 9.36C2.75594 6.48 5.44394 4.2 8.89994 2.52C12.3559 0.839999 16.3399 0 20.8519 0C24.5959 0 27.8599 0.623999 30.6439 1.872C33.4759 3.072 35.6599 4.776 37.1959 6.984C38.7799 9.192 39.5719 11.832 39.5719 14.904C39.5719 16.536 39.3559 18.168 38.9239 19.8C38.5399 21.384 37.7239 23.064 36.4759 24.84C35.2759 26.616 33.4999 28.608 31.1479 30.816L15.0199 46.008L12.7879 41.76H41.2279V51.264H3.13994Z" fill="#FFE71D"/>
</svg>
