<svg width="41" height="52" viewBox="0 0 41 52" fill="none" xmlns="http://www.w3.org/2000/svg">
<path d="M19.2748 51.264C15.7708 51.264 12.2908 50.808 8.83478 49.896C5.37878 48.936 2.45078 47.592 0.0507812 45.864L4.58678 36.936C6.50678 38.328 8.73878 39.432 11.2828 40.248C13.8268 41.064 16.3948 41.472 18.9868 41.472C21.9148 41.472 24.2188 40.896 25.8988 39.744C27.5788 38.592 28.4188 37.008 28.4188 34.992C28.4188 33.072 27.6748 31.56 26.1868 30.456C24.6988 29.352 22.2988 28.8 18.9868 28.8H13.6588V21.096L27.6988 5.184L28.9948 9.36H2.57078V0H37.8508V7.56L23.8828 23.472L17.9788 20.088H21.3628C27.5548 20.088 32.2348 21.48 35.4028 24.264C38.5708 27.048 40.1548 30.624 40.1548 34.992C40.1548 37.824 39.4108 40.488 37.9228 42.984C36.4348 45.432 34.1548 47.424 31.0828 48.96C28.0108 50.496 24.0748 51.264 19.2748 51.264Z" fill="#FFE71D"/>
</svg>
