<svg width="398" height="38" viewBox="0 0 398 38" fill="none" xmlns="http://www.w3.org/2000/svg">
<path d="M76.176 0.0117188H71.5549L68.3948 19.9505C67.9321 22.9717 68.8047 26.0458 70.8012 28.3663C72.7978 30.6933 75.6934 32.0222 78.7609 32.0222H91.5796C96.637 32.0222 100.974 28.4125 101.893 23.4345L106.435 0.0117188H101.813L97.5031 21.9206C96.6635 25.3649 93.6026 27.7713 90.0525 27.7713H80.407C78.1328 27.7713 75.9909 26.773 74.5298 25.0277C73.0688 23.289 72.4606 21.0016 72.8573 18.7671L76.176 0.0117188Z" fill="#DA0003"/>
<path d="M108.001 0.0117188L103.4 23.7254C102.356 29.424 97.3842 33.5625 91.5797 33.5625H78.761C75.2506 33.5625 71.9252 32.0354 69.6378 29.3711C67.3504 26.7069 66.3456 23.1899 66.881 19.7191L70.0014 0.0117188H65.7968L62.7954 16.9954C61.8699 22.2181 63.2979 27.5465 66.7025 31.6057C70.1138 35.6714 75.1051 37.9985 80.4137 37.9985H90.0592C98.3362 37.9985 105.483 32.3858 107.439 24.3402L112.338 0.0117188H107.995H108.001Z" fill="#DA0003"/>
<path d="M122.681 0.0117188H118.133L110.762 37.972H115.218L122.681 0.0117188Z" fill="#DA0003"/>
<path d="M124.237 0.0117188L116.773 37.972H121.309L128.686 0.0117188H124.237Z" fill="#DA0003"/>
<path d="M299.896 0.0117188H295.354L287.977 37.972H292.432L299.896 0.0117188Z" fill="white"/>
<path d="M301.456 0.0117188L293.992 37.972H298.521L305.899 0.0117188H301.456Z" fill="white"/>
<path d="M149.553 6.24609C142.049 6.24609 135.914 12.4737 135.914 19.9771V20.6316C135.914 26.8327 140.958 31.8769 147.159 31.8769H171.878L172.678 27.7781H147.424C145.315 27.7781 143.325 26.8526 141.963 25.2461C140.601 23.6396 140.019 21.5241 140.363 19.4416L140.614 17.9277C141.355 13.4719 145.176 10.2391 149.691 10.2391H176.082L176.856 6.24609H149.553Z" fill="#DA0003"/>
<path d="M147.158 33.4066C140.11 33.4066 134.379 27.6748 134.379 20.6275V19.973C134.379 11.6233 141.195 4.70823 149.551 4.70823H177.152L178.064 0.0078125H149.69C140.15 0.0078125 132.091 6.83697 130.531 16.2444L130.28 17.7583C129.44 22.8091 130.855 27.9393 134.167 31.8464C137.473 35.7535 142.312 37.988 147.429 37.988L170.699 37.9681L171.585 33.3999H147.164L147.158 33.4066Z" fill="#DA0003"/>
<path d="M191.236 0.0117188L187.719 18.2845H210.56L221.904 0.0117188H216.834L207.79 13.9014L193.034 13.8816L195.725 0.0117188H191.236Z" fill="#DA0003"/>
<path d="M189.673 0.0117188H185.171L177.793 37.972H182.368L189.673 0.0117188Z" fill="#DA0003"/>
<path d="M213.881 37.9768H218.152L218.747 32.8335C219.183 28.8801 218.046 24.8474 215.785 22.3154C214.318 20.6824 212.52 19.8164 210.569 19.8164H187.424L183.934 37.9702H188.35L191.047 24.1003H206.96C209.26 24.1003 211.416 25.1184 212.877 26.8902C214.338 28.6619 214.926 30.9692 214.49 33.2301L213.888 37.9702L213.881 37.9768Z" fill="#DA0003"/>
<path d="M217.682 17.4515L229.039 0.0117188H223.711L212.254 18.463C213.993 18.8398 215.586 19.7918 216.928 21.2925C219.473 24.1352 220.756 28.6241 220.273 33.0006L219.698 37.972H224.18L224.557 34.9971C225.509 29.7942 224.134 24.479 220.762 20.3868C219.843 19.2762 218.805 18.2911 217.682 17.4515Z" fill="#DA0003"/>
<path d="M363.581 37.972H355.582L362.96 0.0117188H370.959L363.581 37.972Z" fill="white"/>
<path d="M372.429 37.972H366.473L373.851 0.0117188H379.807L372.429 37.972Z" fill="white"/>
<path d="M379.224 37.972H375.316L382.694 0.0117188H386.601L379.224 37.972Z" fill="white"/>
<path d="M384.979 37.972H382.09L389.468 0.0117188H392.357L384.979 37.972Z" fill="white"/>
<path d="M389.731 37.972H387.867L395.245 0.0117188H397.109L389.731 37.972Z" fill="white"/>
<path d="M240.244 0.0117188L236.859 17.3788L241.289 31.8172H245.758L257.287 16.1558L260.342 0.0117188H255.992L253.314 13.4783L244.25 26.4226L241.216 16.9623L244.528 0.0117188H240.244Z" fill="white"/>
<path d="M261.9 0.013222L258.746 16.6663L263.453 31.8121H267.42L279.663 15.5821L282.532 0.00661099H278.011C277.786 1.10404 275.346 13.4732 275.346 13.4732L266.256 26.3316L263.268 16.9506C263.268 16.9506 266.507 0.191719 266.547 0H261.906L261.9 0.013222Z" fill="white"/>
<path d="M284.086 0.0117188L281.098 16.2219L268.18 33.351H262.323L257.636 18.2647L246.529 33.351H240.156L235.284 17.4647L238.682 0.0117188H233.975L230.57 17.4317L236.983 37.972H248.784L255.818 27.8704L258.998 37.972H270.798C270.95 37.7803 285.157 17.4714 285.157 17.4317L288.562 0.0117188H284.093H284.086Z" fill="white"/>
<path d="M355.8 0.0117188L349.486 33.2849H344.31L320.437 7.07226H318.024L312.57 37.972H316.901L321.403 14.7873L342.207 37.972H352.706L360.084 0.0117188H355.8Z" fill="white"/>
<path d="M316.732 5.53851H321.109L344.988 31.7511H348.214L354.236 0.0117188H349.582L344.928 23.6725L324.275 0.0117188H313.718L306.34 37.972H311.014L316.732 5.53851Z" fill="white"/>
<path d="M56.1715 8.64568C52.9916 3.23788 47.3656 0.0117188 41.1116 0.0117188H21.9265C14.1388 0.0117188 6.82042 4.13037 2.82737 10.7678C2.51005 11.2901 2.30511 11.6867 2.19272 11.9049C-0.821894 17.4052 -0.72273 23.9039 2.45716 29.3183C5.63705 34.7261 11.263 37.9522 17.5104 37.9522H36.6955C39.1482 37.9522 41.548 37.5291 43.8221 36.7622L44.6551 37.9522H48.8729L36.7087 20.3009H32.3389L37.4954 27.692C37.231 27.7118 36.9665 27.7316 36.6955 27.7316H17.5104C14.8858 27.7316 12.6116 26.4226 11.2696 24.1418C9.92097 21.8544 9.88792 19.1043 11.1837 16.7838L11.2961 16.5657C11.2961 16.5657 11.3952 16.3673 11.5869 16.05C13.7421 12.4668 17.7087 10.2455 21.9331 10.2455H41.1183C43.7428 10.2455 46.017 11.5545 47.359 13.8353C48.7077 16.1227 48.7407 18.8729 47.445 21.1933L47.3326 21.4115C47.3326 21.4115 47.2334 21.6098 47.0417 21.9272C46.5922 22.6742 46.0501 23.3551 45.4551 23.9766L42.89 20.3009H38.5664L50.7306 37.9522H55.2063L51.3587 32.4386C53.0842 30.9446 54.5981 29.1926 55.8013 27.1961C56.1186 26.6739 56.3302 26.2772 56.4359 26.059C59.4505 20.5587 59.3514 14.0601 56.1715 8.64568ZM52.5883 24.0427C52.5883 24.0427 52.4164 24.3997 52.0793 24.9484C51.2 26.416 50.1092 27.7184 48.8663 28.8489L47.9805 27.5796C49.0514 26.5747 49.9968 25.431 50.7637 24.1551C51.0678 23.6526 51.2198 23.3353 51.2265 23.3287C53.2891 19.6133 53.2428 15.2501 51.1075 11.6206C48.9986 8.03086 45.2633 5.88889 41.1183 5.88889H21.9331C16.1948 5.88889 10.8068 8.91673 7.86495 13.7956C7.56085 14.2981 7.40879 14.6154 7.40218 14.622C5.33955 18.3374 5.38583 22.7007 7.52118 26.3301C9.63009 29.9199 13.3653 32.0618 17.5104 32.0618H36.6955C37.9119 32.0618 39.1019 31.9164 40.2654 31.6519L41.2108 33.0006C39.7498 33.384 38.2359 33.589 36.6955 33.589H17.5104C12.8166 33.589 8.59216 31.1627 6.19898 27.097C3.78597 22.9915 3.72647 18.0597 6.04032 13.9014C6.04032 13.9014 6.2122 13.5444 6.54936 12.9957C9.76231 7.66064 15.6593 4.34192 21.9265 4.34192H41.1116C45.8054 4.34192 50.0299 6.76816 52.4231 10.8339C54.8361 14.9393 54.8956 19.8711 52.5817 24.0295L52.5883 24.0427Z" fill="#DA0003"/>
</svg>
