<svg width="360" height="410" viewBox="0 0 360 410" fill="none" xmlns="http://www.w3.org/2000/svg">
<g opacity="0.1">
<path fill-rule="evenodd" clip-rule="evenodd" d="M179.722 6.79167C206.969 8.59712 229.235 11.6277 253.475 16.1937C289.064 22.8915 320.74 32.62 352.92 44.6898C401.074 62.7523 447.105 85.8966 493.317 108.356C515.361 112.652 523.631 116.327 543.716 126.777C616.381 151.59 646.945 185.958 687.479 242.535C695.075 253.142 682.751 258.917 679.483 273.634C685.5 291.818 690.344 309.763 695.47 328.205C698.871 329.825 698.279 330.071 700.258 333.778L707.983 348.25L714.125 350.801L714.588 353.235C710.748 357.313 692.577 363.661 682.248 366.26C669.843 369.383 644.212 366.937 630.817 365.982C555.113 374.695 491.584 380.345 415.707 382.739C404.536 383.089 393.667 383.492 382.988 386.998C358.92 394.897 355.027 396.501 330.323 395.884C244.372 393.745 161.225 387.559 75.2525 380.695L78.9601 363.314L82.6676 361.694C82.6676 306.624 81.6118 250.534 60.5026 199.833C54.7558 186.034 45.9463 170.007 33.6507 159.472C13.5894 142.28 -10.9251 144.086 -26.7993 165.65C-46.4416 192.329 -51.9466 242.486 -52.0997 266.997C-52.2609 293.24 -48.1221 319.447 -39.1634 343.857L-231.092 302.203C-239.531 317.179 -243.364 318.734 -260.128 319.601C-278.078 320.527 -294.67 320.66 -312.486 320.58C-330.658 320.495 -339.096 313.334 -343.961 302.074C-354.036 278.756 -353.955 241.483 -352.468 215.852C-354.463 200.341 -354.257 186.095 -353.278 171.059C-352.855 164.53 -352.081 159.815 -350.916 154.794C-346.81 137.07 -341.079 120.168 -332.378 104.447C-325.898 92.7396 -322.219 89.7332 -309.947 87.2991L-305.893 84.1113C-263.228 69.2608 -221.211 53.1166 -178.819 37.7179C-145.656 25.6722 -121.146 18.9703 -90.7152 12.615C-40.7835 2.19747 -5.41614 2 44.8219 2L49.2226 2.58032C94.3627 1.81059 134.522 3.79738 179.718 6.7957L179.722 6.79167Z" stroke="#FFE71D" stroke-width="2.83" stroke-miterlimit="22.93"/>
<path d="M138.789 14.5703C175.369 15.5214 210.273 17.3833 246.447 20.442C274.584 22.8238 295.786 26.745 322.658 36.014C377.897 55.0678 434.712 81.8553 483.947 110.275" stroke="#FFE71D" stroke-width="2.83" stroke-miterlimit="22.93"/>
<path d="M493.317 108.356L494.719 109.811L430.88 116.416C367.004 115.183 303.822 114.51 239.934 115.49C178.4 110.92 117.33 107.317 55.7108 104.367C34.6903 79.3162 17.6193 55.2571 -5.53714 32.1612C-15.6404 22.0821 -16.7728 19.9704 -1.10817 18.6324C46.4862 14.5662 90.8565 14.9248 138.789 14.5742" stroke="#FFE71D" stroke-width="2.83" stroke-miterlimit="22.93"/>
<path d="M55.7108 104.367C49.2265 103.96 34.0817 100.261 23.4707 103.795C15.3866 106.491 3.80028 113.592 -31.4219 128.757C-41.0093 127.298 -51.0118 125.219 -61.2037 122.764M-155.756 94.9815C-171.767 87.2197 -186.339 71.6961 -184.949 61.4962L-179.44 46.3797L-152.193 35.2649C-124.882 27.2412 -99.1905 19.1973 -70.3276 19.2819C-58.5439 19.3142 -44.2978 23.4006 -33.9568 30.034C-9.06348 46.0008 11.4009 78.7648 28.6171 102.643" stroke="#FFE71D" stroke-width="2.83" stroke-miterlimit="22.93"/>
<path d="M-78.1738 10.1613C-36.6205 9.37147 -24.1476 15.8074 -5.46852 36.2637C14.3148 57.929 31.2166 80.2995 48.8196 103.665" stroke="#FFE71D" stroke-width="2.83" stroke-miterlimit="22.93"/>
<path d="M23.4702 103.793C7.99903 82.4014 -8.39503 58.8864 -27.8962 41.1705C-47.1516 23.6803 -63.0419 20.6578 -97.9175 25.5905C-114.473 27.9319 -121.735 29.0361 -132.983 36.54C-147.563 50.5725 -158.372 67.3897 -168.213 82.6956" stroke="#FFE71D" stroke-width="2.83" stroke-miterlimit="22.93"/>
<path d="M35.4355 2.00391C49.7461 4.83297 59.5027 7.23082 73.249 12.0588C64.7981 7.99652 57.7819 5.82435 49.2262 2.5802" stroke="#FFE71D" stroke-width="2.83" stroke-miterlimit="22.93"/>
<path d="M178.453 6.70703C200.912 9.66908 217.963 12.2201 239.629 17.7331C231.029 14.2955 223.513 12.2684 214.953 10.0882" stroke="#FFE71D" stroke-width="2.83" stroke-miterlimit="22.93"/>
<path d="M135.12 385.349C133.641 399.272 110.307 409.166 91.8776 408.175C73.8031 407.203 37.2348 405.148 17.8102 402.94C-11.2341 399.639 -23.7996 381.802 -39.166 343.848" stroke="#FFE71D" stroke-width="2.83" stroke-miterlimit="22.93"/>
<path d="M-39.1675 343.85C-54.6387 282.513 -48.3156 156.165 40.5177 165.978" stroke="#FFE71D" stroke-width="2.83" stroke-miterlimit="22.93"/>
<path d="M-58.2246 261.968C-55.8227 223.623 -46.2313 140.145 5.51797 137.763C45.008 135.946 69.3653 195.594 78.2434 226.053" stroke="#FFE71D" stroke-width="2.83" stroke-miterlimit="22.93"/>
<path d="M68.7715 223.207L112.191 236.365L107.093 239.839L72.4428 236.965" stroke="#FFE71D" stroke-width="2.83" stroke-miterlimit="22.93"/>
<path d="M80.6934 237.68C87.4718 272.438 88.5115 305.339 89.4828 337.281C132.543 365.745 191.575 370.17 242.192 372.967C256.381 367.809 272.775 358.588 287.61 352.341L379.2 352.45C390.77 352.462 400.381 351.757 411.815 349.907L383.194 343.185L281.351 342.722L237.722 279.701C229.691 268.098 236.457 270.464 248.789 272.027C301.026 278.657 352.094 284.633 404.391 290.795L424.215 288.849L429.659 289.429L441.709 294.527C498.464 295.067 561.106 294.063 618.836 288.26C624.425 287.7 629.189 287.156 634.682 286.012L642.214 278.306C656.146 273.664 676.904 262.875 688.68 254.34" stroke="#FFE71D" stroke-width="2.83" stroke-miterlimit="22.93"/>
<path d="M162.961 364.741C158.084 360.921 154.018 357.443 149.952 353.288C146.224 349.475 146.974 347.118 149.565 342.701C163.593 318.791 174.918 305.222 194.117 287.091C210.458 271.656 224.583 267.642 246.297 262.258L427.97 284.04L449.405 289.835L524.484 290.533L577.317 288.679L629.687 283.117L634.439 282.537L640.927 275.932C659.812 268.069 672.716 261.907 689.815 250.547" stroke="#FFE71D" stroke-width="2.83" stroke-miterlimit="22.93"/>
<path d="M167.645 365.594C162.386 361.173 158.178 357.663 153.625 352.915C150.276 349.421 151.444 347.322 153.721 343.473C167.411 320.353 179.348 306.24 198.156 288.713C213.885 274.056 226.753 271.469 247.512 266.754L427.218 287.117L457.688 294.642" stroke="#FFE71D" stroke-width="2.83" stroke-miterlimit="22.93"/>
<path d="M36.7656 162.318L44.5597 157.418L147.635 170.33L328.848 216.909L468.347 231.973L471.982 227.254C476.177 221.805 476.246 222.265 483.113 222.168L513.588 221.733C520.846 221.628 524.001 223.099 530.626 225.686L540.186 229.422C568.746 225.94 589.344 221.93 616.252 211.347C619.887 194.325 620.375 184.238 617.469 167.03C629.374 175.883 653.61 200.865 657.733 214.999L646.287 227.729C643.374 230.97 642.374 230.97 639.082 228.495L616.256 211.347" stroke="#FFE71D" stroke-width="2.83" stroke-miterlimit="22.93"/>
<path d="M64.1582 104.77C164.586 128.474 250.219 170.733 341.16 218.234" stroke="#FFE71D" stroke-width="2.83" stroke-miterlimit="22.93"/>
<path d="M147.635 170.324L149.053 173.863L151.455 176.297L213.618 218.442L220.509 222.497L227.461 224.641L305.151 238.544L311.059 238.198L314.416 234.949L328.848 216.903" stroke="#FFE71D" stroke-width="2.83" stroke-miterlimit="22.93"/>
<path fill-rule="evenodd" clip-rule="evenodd" d="M158 178.062L164.722 178.873L190.732 195.617L222.536 216.356L227.115 218.963L238.528 224.412L224.507 222.034L219.812 220.007L213.384 216.126L158 178.062Z" stroke="#FFE71D" stroke-width="2.83" stroke-miterlimit="22.93"/>
<path fill-rule="evenodd" clip-rule="evenodd" d="M228.852 203.323L230.706 203.094L235.916 209.002L235.804 218.5L252.488 226.524L243.505 225.775L228.59 218.533L228.852 203.323Z" stroke="#FFE71D" stroke-width="2.83" stroke-miterlimit="22.93"/>
<path fill-rule="evenodd" clip-rule="evenodd" d="M224.164 195.982L233.28 195.938L255.526 212.912L289.418 232.84L275.047 231.16L248.171 214.476L224.164 195.982Z" stroke="#FFE71D" stroke-width="2.83" stroke-miterlimit="22.93"/>
<path fill-rule="evenodd" clip-rule="evenodd" d="M284.869 210.1L287.07 209.754L292.748 214.505L293.501 229.219L303.435 234.869L293.618 234.2L286.489 230.146L285.969 228.062L284.869 210.1Z" stroke="#FFE71D" stroke-width="2.83" stroke-miterlimit="22.93"/>
<path fill-rule="evenodd" clip-rule="evenodd" d="M249.586 122.219L262.679 125.926C286.19 143.562 306.627 161.564 327.639 181.395C335.473 188.786 341.627 196.105 348.651 204.249L348.071 205.757H345.871C345.798 205.757 324.399 184.934 322.807 183.447C301.291 163.349 281.157 146.637 254.801 128.594L249.586 122.223V122.219Z" stroke="#FFE71D" stroke-width="2.83" stroke-miterlimit="22.93"/>
<path d="M46.8359 103.254C148.714 128.167 238.93 168.391 331.568 217.202" stroke="#FFE71D" stroke-width="2.83" stroke-miterlimit="22.93"/>
<path d="M329.094 215.891L449.41 289.833" stroke="#FFE71D" stroke-width="2.83" stroke-miterlimit="22.93"/>
<path d="M311.061 238.199L352.856 251.817L387.844 263.403L413.334 277.306L427.975 284.045" stroke="#FFE71D" stroke-width="2.83" stroke-miterlimit="22.93"/>
<path d="M-18.3086 123.004C29.7976 122.049 42.883 120.658 69.5253 132.91C137.532 164.174 192.521 211.233 246.301 262.261" stroke="#FFE71D" stroke-width="2.83" stroke-miterlimit="22.93"/>
<path d="M212.832 277.645L242.259 334.04C245.314 339.892 247.885 343.491 240.276 345.756L202.088 357.112C195.873 358.934 187.06 359.627 180.568 359.317L159.16 358.293" stroke="#FFE71D" stroke-width="2.83" stroke-miterlimit="22.93"/>
<path d="M78.7578 364.257C183.449 379.128 278.876 382.553 385.191 381.308C394.222 381.203 394.053 380.856 400.578 374.469L442.558 333.383C450.574 325.537 454.04 325.307 465.38 324.852C511.181 323.006 556.978 321.132 602.779 319.226C610.005 318.923 613.052 318.807 619.157 322.764C635.233 333.186 650.063 343.623 665.663 354.94C669.701 357.869 669.597 358.361 664.603 358.716C576.806 364.922 489.069 370.052 401.106 373.953" stroke="#FFE71D" stroke-width="2.83" stroke-miterlimit="22.93"/>
<path d="M298.57 278.211L319.228 342.897" stroke="#FFE71D" stroke-width="2.83" stroke-miterlimit="22.93"/>
<path d="M82.6641 361.694L130.444 367.977L176.906 372.148L232.633 376.202L244.916 376.436L248.97 374.812L272.606 362.298L287.9 355.464L295.896 355.58L370.511 355.927L396.928 355.464L408.631 354.42L411.875 352.566L411.815 349.91" stroke="#FFE71D" stroke-width="2.83" stroke-miterlimit="22.93"/>
<path d="M244.916 376.434C289.444 376.894 333.947 377.055 378.47 377.208C392.587 377.256 392.797 377.236 402.816 367.443L441.149 329.996C448.705 322.618 449.024 322.573 459.558 322.094C506.362 319.95 553.187 318.446 600 316.339C608.007 315.98 608.878 315.714 616.93 318.197" stroke="#FFE71D" stroke-width="2.83" stroke-miterlimit="22.93"/>
<path d="M17.356 385.247C49.1903 385.247 74.9971 340.621 74.9971 285.573C74.9971 230.524 49.1903 185.898 17.356 185.898C-14.4783 185.898 -40.2852 230.524 -40.2852 285.573C-40.2852 340.621 -14.4783 385.247 17.356 385.247Z" stroke="#FFE71D" stroke-width="2.83" stroke-miterlimit="22.93"/>
<path d="M49.3313 368.517L33.8763 364.991C29.1974 363.923 27.8756 363.85 24.845 368.142L12.9727 384.963" stroke="#FFE71D" stroke-width="2.83" stroke-miterlimit="22.93"/>
<path d="M9.20506 384.254L23.6849 364.305C26.4333 360.517 25.8449 360.211 25.051 355.548L19.2196 321.221C18.4499 316.699 18.067 316.36 19.7798 312.016L25.2364 298.173L21.7021 295.973L5.3403 302.493C1.57224 303.996 0.90728 304.75 -1.72431 307.76L-20.8789 329.659L-15.9905 366.881" stroke="#FFE71D" stroke-width="2.83" stroke-miterlimit="22.93"/>
<path d="M-39.0781 305.947L-25.8395 322.18C-22.9057 325.779 -22.5994 325.884 -19.5084 322.406L-4.52889 305.56C-0.926062 301.51 0.0693306 300.801 4.49427 297.936L18.7484 288.703L18.8653 280.998L2.4148 269.472C-1.40967 266.792 -2.15523 265.692 -4.92788 262.065L-20.6449 241.516L-28.4349 248.701L-38.2479 259.252" stroke="#FFE71D" stroke-width="2.83" stroke-miterlimit="22.93"/>
<path d="M52.0847 365.132C45.0967 363.823 39.0719 362.505 32.4183 360.748C28.3803 359.68 28.348 356.597 27.7475 352.631L22.9962 321.266C22.3151 316.768 22.0854 315.813 24.048 311.642L34.3527 288.184L56.0704 289.376C61.5915 289.679 60.9991 290.581 62.2444 295.736L69.8047 326.968" stroke="#FFE71D" stroke-width="2.83" stroke-miterlimit="22.93"/>
<path d="M71.2103 321.171L64.0731 290.41L63.7266 286.126L64.4198 281.375L72.2218 254.918" stroke="#FFE71D" stroke-width="2.83" stroke-miterlimit="22.93"/>
<path d="M-12.7211 200.528L-19.0039 236.189L-3.81079 257.363C0.412654 263.251 2.66945 264.649 9.15372 267.74L21.8402 273.789L25.6042 271.879L21.5863 259.007C19.664 252.845 20.3249 251.266 21.5339 245.14L27.3613 215.632C28.2922 210.925 28.4494 211.203 25.8863 207.214L12.4301 186.266" stroke="#FFE71D" stroke-width="2.83" stroke-miterlimit="22.93"/>
<path d="M15.6895 185.941L28.0092 203.911C30.6005 207.691 30.673 208.586 35.3599 207.921L51.762 205.6" stroke="#FFE71D" stroke-width="2.83" stroke-miterlimit="22.93"/>
<path d="M54.5051 209.355C46.9247 209.887 38.5342 209.44 31.6872 212.785C28.9226 224.549 25.8477 237.046 23.9819 248.886C22.8454 256.112 22.7406 255.688 25.5898 261.87L32.9244 277.781C35.5198 283.407 35.427 283.278 41.7259 283.572L55.3957 284.209C61.0901 284.475 60.6468 284.104 62.2911 278.635L71.0764 249.369" stroke="#FFE71D" stroke-width="2.83" stroke-miterlimit="22.93"/>
<path fill-rule="evenodd" clip-rule="evenodd" d="M26.3842 273.535C29.8863 273.535 32.7275 278.544 32.7275 284.726C32.7275 290.908 29.8863 295.922 26.3842 295.922C22.8822 295.922 20.041 290.908 20.041 284.726C20.041 278.544 22.8822 273.535 26.3842 273.535Z" stroke="#FFE71D" stroke-width="2.83" stroke-miterlimit="22.93"/>
<path d="M58.2411 355.826L48.5409 355.761L37.6478 352.517L34.9034 325.814C33.9483 316.521 35.5522 310.726 39.82 302.404L44.4827 293.312L61.848 294.07" stroke="#FFE71D" stroke-width="2.83" stroke-miterlimit="22.93"/>
<path d="M14.0168 377.682C2.89398 372.161 0.47599 370.254 -7.88224 361.441C-9.02676 351.724 -10.7919 340.485 -10.4332 330.736L5.02182 315.337C7.16175 313.206 8.07657 312.742 11.1031 312.674L19.5943 312.488" stroke="#FFE71D" stroke-width="2.83" stroke-miterlimit="22.93"/>
<path d="M20.7312 198.887C11.2889 203.525 2.8702 206.665 -5.10518 213.6C-6.78166 219.919 -8.03499 225.815 -9.3125 232.199L4.96983 251.232C9.49956 257.269 13.5296 257.189 20.7433 256.109" stroke="#FFE71D" stroke-width="2.83" stroke-miterlimit="22.93"/>
<path d="M62.5459 277.799L45.3257 275.937C40.4776 275.413 38.8414 272.189 37.1125 268.01L33.1309 258.382C34.6058 245.365 36.637 232.433 39.6756 219.682C48.1023 217.832 53.3857 217.236 59.2936 217.191" stroke="#FFE71D" stroke-width="2.83" stroke-miterlimit="22.93"/>
<path fill-rule="evenodd" clip-rule="evenodd" d="M212.491 259.98C214.393 259.98 215.936 261.512 215.936 263.398C215.936 265.284 214.393 266.815 212.491 266.815C210.588 266.815 209.045 265.284 209.045 263.398C209.045 261.512 210.588 259.98 212.491 259.98Z" stroke="#FFE71D" stroke-width="2.83" stroke-miterlimit="22.93"/>
<path d="M17.7767 389.052C50.9954 389.052 77.9245 342.429 77.9245 284.917C77.9245 227.404 50.9954 180.781 17.7767 180.781C-15.442 180.781 -42.3711 227.404 -42.3711 284.917C-42.3711 342.429 -15.442 389.052 17.7767 389.052Z" stroke="#FFE71D" stroke-width="2.83" stroke-miterlimit="22.93"/>
</g>
</svg>
